<svg width="97" height="33" fill="none" xmlns="http://www.w3.org/2000/svg">
  <path fill-rule="evenodd" clip-rule="evenodd" d="M19.498 16.08h-4.24l1.42-1.38h7.56l-1.113 1.09c-.207.186-.345.398-.345.706v6.027C19.252 23.485 16.197 24 12.756 24 5.661 24 .015 19.424.015 11.83.015 6.492 4.249 0 13.512 0c4.22 0 7.171 1.284 9.21 2.636L19.5 5.794V3.891c-1.72-1.527-3.64-2.623-6.943-2.623-5.218 0-8.959 3.966-8.959 9.621 0 5.766 4.136 11.67 11.172 11.67 1.736 0 3.406-.23 4.729-.646V16.08ZM33.739 8c-5.243 0-8.491 3.69-8.491 7.606 0 3.38 2.617 7.394 7.92 7.394 5.1 0 8.23-3.697 8.23-7.682 0-3.712-3.06-7.317-7.659-7.317V8Zm-.87 1.076c3.697 0 5.343 4.638 5.343 7.946 0 4.92-3.832 5.017-4.29 5.017-1.754 0-2.98-1.02-3.897-2.36-.808-1.233-1.597-3.526-1.597-5.766 0-2.23.758-3.32 1.951-4.122.976-.6 1.89-.715 2.49-.715ZM68.06 8c-4.424 0-6.818 2.895-6.818 6.128 0 2.461 1.706 5.238 5.225 5.238h.89s-.242.608-.243 1.197c0 .867.301 1.354.941 2.104-6.055.381-8.489 2.906-8.489 5.619 0 2.376 2.201 4.714 6.827 4.714 5.477 0 8.313-3.142 8.313-6.226 0-2.175-1.048-3.366-3.702-5.422-.78-.626-.932-1.026-.932-1.495 0-.66.375-1.1.524-1.275l.008-.01c.166-.18.411-.378.606-.534.1-.081.188-.151.243-.203.892-.78 2.151-1.936 2.151-4.242 0-1.582-.636-2.943-2.087-4.217h1.77L74.618 8H68.06Zm-1.22 1.029c.803 0 1.473.293 2.18.902.786.732 2.04 2.698 2.04 5.13 0 2.626-1.973 3.344-3.04 3.344-.524 0-1.15-.15-1.68-.526-1.178-.79-2.348-2.891-2.348-5.392 0-2.257 1.3-3.458 2.848-3.458Zm2.332 14.663s-.243-.029-.58-.029c-4.544.066-6.2 1.837-6.2 3.895 0 2.485 2.417 4.006 5.578 4.006 2.88 0 4.659-1.554 4.659-3.535 0-1.442-.808-2.25-2.104-3.31-.556-.439-1.353-1.027-1.353-1.027ZM81.801 23h-6.427l1.178-1.154c.193-.197.283-.388.283-.669V1.403h-2.13L76.13 0h5.48l-1.159 1.14a.878.878 0 0 0-.306.69v19.09c0 .41.294.831.79.89l1.844.227-.98.963Zm.979-7.798C82.78 10.576 86.638 8 90.27 8c3.853 0 5.53 1.987 6.125 3.96L86.1 15.833c.983 3.597 3.792 5.554 6.706 5.554 1.534 0 2.688-.436 4.103-1.1-.75.933-1.777 1.676-2.844 2.134-.995.425-2.057.579-3.347.579-5.171 0-7.94-3.978-7.94-7.798Zm10.174-3.484c0-1.168-1.408-2.66-3.357-2.66-1.288 0-3.9.899-3.9 4.26 0 .802.172 1.544.172 1.544l6.327-2.382c.504-.185.758-.384.758-.762ZM51.907 8c-5.243 0-8.491 3.69-8.491 7.606 0 3.38 2.617 7.394 7.92 7.394 5.1 0 8.229-3.697 8.229-7.682 0-3.712-3.058-7.317-7.658-7.317V8Zm-.87 1.076c3.697 0 5.343 4.638 5.343 7.946 0 4.92-3.832 5.017-4.29 5.017-1.754 0-2.98-1.02-3.897-2.36-.808-1.233-1.597-3.526-1.597-5.766 0-2.23.758-3.32 1.951-4.122.976-.6 1.89-.715 2.489-.715h.001Z" fill="#36536B"/>
</svg>
