<svg width="142" height="27" fill="none" xmlns="http://www.w3.org/2000/svg">
  <path fill-rule="evenodd" clip-rule="evenodd" d="M40.52 0H23.759l-.762 2.021c6.646.315 11.929 5.303 11.929 11.409 0 5.676-4.564 10.385-10.545 11.274l-.717 2.169H40.52a3.538 3.538 0 0 0 2.52-1.045 3.6 3.6 0 0 0 1.046-2.537V3.57C44.086 1.58 42.49 0 40.52 0ZM9.833 13.43c0 4.998 3.55 9.408 8.488 11.01l-.862 2.433H4.253c-1.966 0-3.559-1.625-3.559-3.61V3.598C.694 1.614 2.286.004 4.253.001h13.633l-.855 2.4c-4.115 2.204-7.198 6.637-7.198 11.03Zm123.642 2.961h-7.788v10.59h7.74c2.803 0 2.992-2.731 2.992-4.217V19.65c0-1.87-.95-3.259-2.944-3.259Zm.522 6.661v-3.02c.049-.669-.426-1.436-1.139-1.436h-4.75v6.18h4.56c.854 0 1.329-.814 1.329-1.724Zm-11.654-.187c.573-.482.954-1.202.954-3.126 0-2.164-1.477-3.366-3.192-3.366h-7.002v10.626h2.382v-3.126h4.096c.953 0 1.429.77 1.429 1.203v1.922h2.287v-2.211c0-.625-.192-1.538-.954-1.922Zm-6.858-1.202h4.381c.906 0 1.144-1.107 1.144-1.635 0-.53-.238-1.443-1.43-1.443h-4.095v3.078Zm-9.001-5.27h-3.133l-4.225 9.1v1.486h1.899l.854-1.916h6.068l.864 1.916h2.47l-4.797-10.585Zm-1.566 1.965-2.042 4.502h4.074l-2.032-4.502ZM88.112 26.99V16.383h2.427v3.984h1.046l4.138-3.984h3.234l-5.09 4.992 4.233 4.223v1.392h-1.808l-4.516-4.416h-1.237v4.416h-2.427Zm-12.744-2.505v-5.598c0-1.195 1.28-2.487 2.419-2.487h5.834c1.519.047 2.418 1.627 2.418 2.536v.908h-2.418c-.049-.479-.474-1.195-.854-1.195h-4.174c-.948 0-.805.956-.805.956v4.21c0 .766.473.957.758.957h4.126c.901 0 .997-.765.997-1.244h2.371v.957c0 1.58-1.09 2.488-2.418 2.488h-5.787c-1.803 0-2.467-1.388-2.467-2.488Zm-5.874-8.112H66.35L61.444 27h2.572l.858-1.923h6.086L71.828 27h2.477l-4.811-10.627Zm-1.573 1.97-2.047 4.522h4.048l-2-4.521Zm-9.197-1.954h-7.65v10.595h2.423v-2.973h5.226c1.425 0 3.041-.814 3.041-3.787 0-3.02-1.758-3.835-3.04-3.835Zm-5.227 5.418h4.657c1.045 0 1.045-1.103 1.045-1.582 0-.48 0-1.63-1.188-1.63h-4.514v3.212ZM51.074.174v10.595h2.423v-4.22h6.32v4.22h2.422V.174h-2.423v4.17h-6.319V.175h-2.423Zm15.32-.007h8.086v2.21h-7.325v1.968h6.089v2.208h-6.089v2.016h7.325v2.207h-8.228c-.952 0-1.522-.768-1.522-1.392V1.751c0-.96.57-1.584 1.665-1.584Zm27.61.01v9.007c0 .815.617 1.581 1.71 1.581h7.123V8.561h-6.41V.178h-2.424Zm27.589 2.198v8.401h-2.425V2.375h-3.497V.165h9.468v2.21h-3.546Zm11.22 8.408V2.37h3.547V.158h-9.477V2.37h3.501v8.413h2.429ZM105.814.171h8.08v2.206h-7.32v1.967h6.084V6.55h-6.084v2.015h7.32v2.206h-8.223c-.952 0-1.521-.767-1.521-1.391V1.755c0-.96.569-1.584 1.664-1.584Zm-18.43 10.616c-.716 0-1.406-1.082-1.55-1.611L84.049 3.62l-2.335 7.168h-1.477c-.715 0-1.335-1.106-1.478-1.635L75.852.156h2.43l2.24 7.264L82.905.204h2.286l2.382 7.216 2.24-7.264h2.431l-3.431 10.632h-1.43v-.001ZM139.643.094a2.27 2.27 0 0 1 1.668.692c.459.462.689 1.021.689 1.677a2.314 2.314 0 0 1-.689 1.686 2.26 2.26 0 0 1-1.668.699 2.244 2.244 0 0 1-1.666-.699 2.318 2.318 0 0 1-.682-1.686 2.3 2.3 0 0 1 .688-1.677 2.257 2.257 0 0 1 1.66-.692Zm1.433 3.825c-.374.393-.893.61-1.433.602-.54.01-1.06-.209-1.434-.602a2.006 2.006 0 0 1-.587-1.457c0-.565.197-1.047.59-1.446.395-.401.872-.602 1.432-.602.559 0 1.038.2 1.433.602.394.399.59.881.59 1.446a2 2 0 0 1-.591 1.457ZM19.191 0l-6.385 18v.002h2.697l3.122-8.664h.85c.568 0 .568.416.473.88l-2.79 7.784h2.79s2.413-6.579 2.839-7.97c.425-1.39-.426-2.085-2.082-2.085h-1.608L21.935 0H19.19Zm6.19 7.902h4.415c1.328 0 2.705.698 1.993 2.606l-2.04 5.676c-.38 1.07-.713 1.815-2.706 1.815h-2.496L21.727 26H19.02l6.36-18.098Zm3.655 2.094s-1.993 5.536-2.04 5.816c-.048.28-.286.79-.76.79h-1.198l2.574-7.304H28.8c.427 0 .38.326.237.698Z" fill="#36536B"/>
</svg>
