<svg width="148" height="31" fill="none" xmlns="http://www.w3.org/2000/svg">
  <path fill-rule="evenodd" clip-rule="evenodd" d="M15.921 15H.781V0h15.14v15Zm131.213-.939V11.54h-3.173V7.62l-.107.033-2.98.9-.059.017v2.97h-4.703V9.885c0-.77.174-1.36.518-1.753.342-.388.831-.586 1.454-.586.448 0 .912.105 1.379.31l.117.052V5.252l-.055-.02c-.436-.154-1.028-.232-1.762-.232-.926 0-1.767.199-2.5.593a4.242 4.242 0 0 0-1.715 1.673c-.403.715-.608 1.54-.608 2.455v1.819h-2.209v2.521h2.209v10.622h3.172V14.06h4.703v6.75c0 2.78 1.329 4.189 3.95 4.189.43 0 .884-.05 1.346-.148.471-.1.792-.2.981-.306l.042-.025v-2.544l-.129.084a2.239 2.239 0 0 1-.638.274 2.45 2.45 0 0 1-.626.105c-.614 0-1.068-.163-1.35-.485-.285-.325-.43-.894-.43-1.689v-6.205h3.173Zm-23.485 8.38c-1.151 0-2.059-.377-2.698-1.119-.644-.746-.97-1.809-.97-3.16 0-1.393.326-2.484.97-3.243.64-.754 1.539-1.136 2.672-1.136 1.1 0 1.975.365 2.602 1.086.63.725.95 1.807.95 3.217 0 1.428-.301 2.524-.894 3.257-.589.728-1.474 1.098-2.632 1.098Zm-5.043-9.33c1.243-1.253 2.988-1.888 5.184-1.888 2.069 0 3.71.608 4.876 1.806 1.166 1.198 1.757 2.865 1.757 4.955 0 2.116-.63 3.833-1.873 5.102-1.243 1.27-2.952 1.913-5.081 1.913-2.043 0-3.694-.61-4.908-1.817-1.213-1.206-1.828-2.86-1.828-4.919 0-2.166.63-3.9 1.873-5.152Zm-6.987-1.888c-1.494 0-2.729.377-3.673 1.12-.95.749-1.432 1.73-1.432 2.917 0 .617.104 1.165.309 1.63.206.466.524.877.948 1.221.42.342 1.068.7 1.927 1.064.723.294 1.261.542 1.604.738.334.191.571.384.705.571.131.184.197.435.197.745 0 .883-.67 1.313-2.049 1.313-.511 0-1.095-.105-1.734-.313a6.546 6.546 0 0 1-1.775-.889l-.132-.093v3.014l.048.022c.449.204 1.015.377 1.682.512.665.136 1.27.205 1.795.205 1.621 0 2.927-.379 3.879-1.127.959-.753 1.445-1.757 1.445-2.985 0-.886-.262-1.646-.777-2.258-.512-.608-1.401-1.166-2.64-1.66-.988-.39-1.62-.715-1.881-.964-.252-.24-.379-.581-.379-1.013 0-.382.157-.688.481-.936.326-.25.78-.376 1.35-.376.528 0 1.069.083 1.606.244.538.161 1.01.378 1.403.642l.13.087v-2.858l-.05-.021c-.363-.154-.842-.285-1.424-.392a8.824 8.824 0 0 0-1.563-.16Zm-16.07 10.1c.639.741 1.547 1.118 2.697 1.118 1.159 0 2.044-.37 2.633-1.098.593-.733.894-1.83.894-3.257 0-1.41-.32-2.492-.95-3.217-.627-.72-1.503-1.086-2.602-1.086-1.134 0-2.032.382-2.672 1.136-.644.759-.97 1.85-.97 3.243 0 1.352.326 2.414.97 3.16Zm2.839-10.1c-2.197 0-3.941.635-5.184 1.888-1.243 1.252-1.874 2.986-1.874 5.152 0 2.059.616 3.713 1.83 4.92 1.213 1.205 2.864 1.816 4.907 1.816 2.128 0 3.838-.643 5.081-1.913 1.243-1.269 1.873-2.986 1.873-5.102 0-2.09-.591-3.757-1.757-4.955-1.167-1.198-2.808-1.806-4.876-1.806Zm-11.872.317v2.276h.033c.293-.739.676-1.331 1.206-1.763a3.237 3.237 0 0 1 2.095-.741c.522 0 .935.062 1.227.184l.05.021v3.117l-.131-.094c-.145-.103-.391-.201-.73-.291a3.722 3.722 0 0 0-.943-.137c-.832 0-1.514.355-2.026 1.056-.518.71-.78 1.648-.78 2.791v6.724h-3.134V11.54h3.133Zm-8.743-.317c-1.437 0-2.72.304-3.81.904a6.126 6.126 0 0 0-2.512 2.55c-.572 1.088-.863 2.359-.863 3.777 0 1.241.282 2.381.839 3.385a5.855 5.855 0 0 0 2.344 2.34c.997.545 2.149.82 3.425.82 1.489 0 2.76-.293 3.779-.872l.041-.023V21.27l-.132.095a5.916 5.916 0 0 1-1.532.788c-.554.19-1.059.287-1.502.287-1.229 0-2.216-.38-2.932-1.128-.718-.75-1.082-1.802-1.082-3.126 0-1.332.38-2.411 1.128-3.208.746-.794 1.734-1.196 2.938-1.196 1.03 0 2.033.344 2.983 1.023l.131.094v-2.984l-.042-.024c-.358-.197-.845-.36-1.45-.483a8.768 8.768 0 0 0-1.75-.186Zm-12.475.317h3.132v13.143h-3.133V11.54Zm1.598-5.599c-.516 0-.965.173-1.335.517-.37.344-.56.777-.56 1.289 0 .503.187.929.554 1.264.365.334.817.503 1.341.503s.977-.17 1.347-.503a1.64 1.64 0 0 0 .56-1.264c0-.494-.183-.923-.545-1.276-.361-.352-.82-.53-1.362-.53Zm-7.817 18.742V10.57h-.103l-5.674 14.113h-2.267l-5.764-14.114h-.103v14.113h-3.004V6.343h4.605l5.458 13.622 5.625-13.622h4.425v18.34h-3.198ZM16.931 15h15.14V0H16.93v15Zm-1.01 16H.781V16h15.14v15Zm1.01 0h15.14V16H16.93v15Z" fill="#36536B"/>
</svg>
