<svg width="139" height="26" fill="none" xmlns="http://www.w3.org/2000/svg">
  <path fill-rule="evenodd" clip-rule="evenodd" d="M15.398 0v3.501l.695-.043c8.94-.304 14.778 7.321 14.778 7.321S24.178 18.91 17.21 18.91a10.64 10.64 0 0 1-1.796-.159v2.17c.492.058 1 .102 1.492.102 6.49 0 11.184-3.314 15.734-7.22.34.274 1.154.722 2.005 1.19 1.035.569 2.122 1.166 2.471 1.516-4.317 3.617-14.386 6.525-20.094 6.525-.55 0-1.073-.029-1.594-.087V26h24.659V0H15.398Zm0 7.755V5.412h.014V5.41c.227-.014.454-.028.681-.028 6.433-.202 10.65 5.527 10.65 5.527s-4.55 6.309-9.433 6.309a5.99 5.99 0 0 1-1.897-.304V9.795c2.36.286 2.947 1.278 4.253 3.482l.252.425 3.347-2.807s-2.448-3.198-6.563-3.198a9.831 9.831 0 0 0-1.304.058Zm0 0v2.026h-.014c-2.507-.304-4.477 2.04-4.477 2.04s1.115 3.95 4.491 5.093v1.852c-5.998-1.071-7.664-7.307-7.664-7.307s2.883-3.183 7.664-3.704Zm.014-2.345-.014.001v.001C8.294 5.968 4.749 11.2 4.749 11.2s2.71 8.739 10.649 9.723v2.025C4.575 21.934.722 10.794.722 10.794S7.53 4.138 15.412 3.5v1.91ZM47.151 5v16.986h4.897V8.796l3.818.015c1.254 0 2.128.302 2.726.935.772.806 1.078 2.114 1.078 4.487v7.753h4.752v-9.378C64.422 5.906 60.093 5 55.866 5h-8.715Zm38.185.029V22h4.853V5.029h-4.853ZM93.163 22V5.029h6.806c3.877 0 6.471.46 8.249 2.833 1.006 1.323 1.574 3.452 1.574 5.84 0 2.603-.67 4.99-1.72 6.069C106.6 21.31 105.23 22 101.033 22h-7.87Zm4.81-13.29h2.083c3.032 0 4.985 1.338 4.985 4.819 0 3.48-1.953 4.832-4.985 4.832h-2.084v-9.65Zm-23.684 9.766L78.34 5.03h4.956L77.699 22h-6.996L65.165 5.029h5.247l3.877 13.447ZM112.066 22h4.853V5.029h-4.853V22Zm6.835-.014 6.778-16.957h6.485L139 21.97h-5.203l-1.021-2.991h-8.016l-1.078 3.006h-4.781Zm9.926-13.865 2.944 7.94h-5.976l3.032-7.94Z" fill="#36536B"/>
</svg>
