<svg width="133" height="17" fill="none" xmlns="http://www.w3.org/2000/svg">
  <path fill-rule="evenodd" clip-rule="evenodd" d="M57.081 11.06h8.737l-4.62-7.351-8.479 13.29h-3.858L59.174 1.036A2.445 2.445 0 0 1 61.198 0c.802 0 1.55.376 1.984 1.008L73.536 17h-3.859l-1.82-2.97H59.01l-1.93-2.97Zm40.084 2.97V.16h-3.274v15.226c0 .417.163.82.475 1.129.313.309.734.484 1.196.484h14.933l1.93-2.97h-15.26ZM48.752 5.86c0 3.144-2.582 5.683-5.762 5.683v.001h-1.494L48.072 17h-4.755l-9.775-8.426 9.231.013a2.733 2.733 0 0 0 2.745-2.727 2.734 2.734 0 0 0-2.745-2.729H31.938V17h-3.273V.16H42.99c3.18 0 5.762 2.554 5.762 5.7ZM8.514 17C3.814 17 0 13.237 0 8.587S3.814.161 8.514.161h9.896c4.701 0 8.513 3.776 8.513 8.426S23.112 17 18.41 17H8.514Zm15.188-8.413c0 3.01-2.467 5.443-5.512 5.443H8.733c-3.044 0-5.511-2.433-5.511-5.443s2.467-5.456 5.511-5.456h9.457c3.045 0 5.512 2.446 5.512 5.456ZM80.37 17c-4.701 0-8.52-3.763-8.52-8.413S75.67.161 80.371.161h11.754l-1.916 2.97h-9.62c-3.044 0-5.517 2.446-5.517 5.456 0 3.01 2.473 5.443 5.516 5.443h11.808L90.466 17H80.371Zm34.744-6.935c.652 2.299 2.786 3.965 5.299 3.965h11.808L130.293 17h-10.096c-4.702 0-8.52-3.763-8.52-8.413S115.495.16 120.197.16h11.767l-1.943 2.97h-9.607c-2.513 0-4.647 1.68-5.299 3.965h15.925l-1.929 2.97h-13.996Z" fill="#36536B"/>
</svg>
