<svg width="131" height="17" fill="none" xmlns="http://www.w3.org/2000/svg">
  <path fill-rule="evenodd" clip-rule="evenodd" d="M3.386 3.428C1.67 3.052.37 1.55 0 .047L21.196 0v.047c-.371 1.503-1.623 2.912-3.386 3.381h-5.287l-.278.094V17H8.95V3.522l-.278-.094H3.386Zm29.347-.01h12.634c1.779-.327 3.089-1.92 3.416-3.418H29.27c.375 1.499 1.685 3.044 3.463 3.419Zm94.054 0h-12.634c-1.731-.374-3.041-1.92-3.416-3.418h19.466c-.374 1.499-1.637 3.09-3.416 3.419ZM111.252 17V6.744h18.53V17h-3.275v-6.838h-11.979V17h-3.276Zm-9.967 0c1.638-.703 2.527-1.92 2.901-3.325h-14.74V.047h-3.322V17h15.161ZM73.256 3.372H61.558l.047 3.372h15.16V17H57.347c.796-1.64 2.387-2.904 4.259-3.419H73.49V10.07H58.33V.047h18.53c-.375 1.452-1.826 2.81-3.604 3.325Zm-27.889 6.744H32.733c-1.778-.375-3.088-1.92-3.462-3.419h19.512c-.327 1.499-1.638 3.09-3.416 3.419ZM32.733 17h12.634c1.779-.328 3.089-1.92 3.416-3.419H29.27c.375 1.499 1.685 3.091 3.463 3.419Z" fill="#36536B"/>
</svg>
